<?xml version="1.0" standalone="no"?>
<!DOCTYPE svg PUBLIC "-//W3C//DTD SVG 20010904//EN"
 "http://www.w3.org/TR/2001/REC-SVG-20010904/DTD/svg10.dtd">
<svg version="1.0" xmlns="http://www.w3.org/2000/svg"
 width="974.000000pt" height="974.000000pt" viewBox="0 0 974.000000 974.000000"
 preserveAspectRatio="xMidYMid meet">
<metadata>
Created by potrace 1.11, written by Peter Selinger 2001-2013
</metadata>
<g transform="translate(0.000000,974.000000) scale(0.100000,-0.100000)"
fill="#000000" stroke="none">
<path d="M1720 9440 l0 -160 -160 0 -160 0 0 -320 0 -320 -310 0 -310 0 0 160
0 160 -330 0 -330 0 0 -490 0 -490 160 0 160 0 0 -320 0 -320 160 0 160 0 0
-160 0 -160 320 0 320 0 0 -160 0 -160 160 0 160 0 0 -310 0 -310 -160 0 -160
0 0 -480 0 -480 -160 0 -160 0 0 -1600 0 -1600 -160 0 -160 0 0 -320 0 -320
-160 0 -160 0 0 -490 0 -490 160 0 160 0 0 -140 0 -140 490 0 490 0 0 140 0
140 160 0 160 0 0 480 0 480 160 0 160 0 0 160 0 160 150 0 150 0 0 -160 0
-160 160 0 160 0 0 -160 0 -160 320 0 320 0 0 -160 0 -160 1290 0 1290 0 0
160 0 160 320 0 320 0 0 160 0 160 160 0 160 0 0 160 0 160 150 0 150 0 0
-160 0 -160 160 0 160 0 0 -480 0 -480 160 0 160 0 0 -140 0 -140 490 0 490 0
0 140 0 140 160 0 160 0 0 490 0 490 -160 0 -160 0 0 320 0 320 -160 0 -160 0
0 1600 0 1600 -160 0 -160 0 0 480 0 480 -160 0 -160 0 0 310 0 310 160 0 160
0 0 160 0 160 320 0 320 0 0 160 0 160 160 0 160 0 0 320 0 320 160 0 160 0 0
490 0 490 -330 0 -330 0 0 -160 0 -160 -310 0 -310 0 0 320 0 320 -160 0 -160
0 0 160 0 160 -650 0 -650 0 0 -160 0 -160 -160 0 -160 0 0 -160 0 -160 -160
0 -160 0 0 -320 0 -320 -160 0 -160 0 0 -320 0 -320 -950 0 -950 0 0 320 0
320 -160 0 -160 0 0 320 0 320 -160 0 -160 0 0 160 0 160 -160 0 -160 0 0 160
0 160 -650 0 -650 0 0 -160z m2240 -7050 l0 -150 -150 0 -150 0 0 150 0 150
150 0 150 0 0 -150z m2240 0 l0 -150 -150 0 -150 0 0 150 0 150 150 0 150 0 0
-150z"/>
</g>
</svg>
